{"title":"Thomas.And.Friends.Calling.All.Engines[2005]-Bearmeister.avi","uid":4021758,"size":433311744,"categoryP":"video","categoryS":"tv_shows","magnet":"?xt=urn:btih:3f466b14a368c272dd0dd5957b718df8a0a66063&amp;dn=Thomas.And.Friends.Calling.All.Engines%5B2005%5D-Bearmeister.avi&amp;tr=udp%3A%2F%2Ftracker.openbittorrent.com%3A80&amp;tr=udp%3A%2F%2Fopen.demonii.com%3A1337&amp;tr=udp%3A%2F%2Ftracker.coppersurfer.tk%3A6969&amp;tr=udp%3A%2F%2Fexodus.desync.com%3A6969","seeders":0,"leechers":1,"uploader":"bearmeister","files":1,"time":1202693339,"description":"\nAll Bearmeister torrents located here &lt;a href=&quot;\nhttp://thepiratebay.se/user/bearmeister/&quot; rel=&quot;nofollow&quot; target=&quot;_NEW&quot;&gt;\nhttp://thepiratebay.se/user/bearmeister/&lt;/a&gt;\n\n  Duration: 01:00:01.0, bitrate: 962 kb/s\n  Stream #0.0: Video: mpeg4, 720x480, 25.00 fps\n  Stream #0.1: Audio: mp3, 44100 Hz, stereo, 192 kb/s\n\nIt&amp;#039;s summertime on the lovely isle of Sodor, and everyone should be having a good time, working and playing hard. But it seems that the Steam engines and the Diesels just can&amp;#039;t get along, and therefore no work is being done at all! Meanwhile, there&amp;#039;s a bridge that needs building, and airport to erect, and lots of materials to haul. Can Thomas and his engine friends save the day, resolve their differences with the Diesels, and get all the work done in time? Find out in this charming episode of the popular children&amp;#039;s TV show, based on the books created in 1945 by Reverend Wilbert Vere Awdry.","torrent":{"xt":"urn:btih:3f466b14a368c272dd0dd5957b718df8a0a66063","amp;dn":"Thomas.And.Friends.Calling.All.Engines%5B2005%5D-Bearmeister.avi","amp;tr":["udp%3A%2F%2Ftracker.openbittorrent.com%3A80","udp%3A%2F%2Fopen.demonii.com%3A1337","udp%3A%2F%2Ftracker.coppersurfer.tk%3A6969","udp%3A%2F%2Fexodus.desync.com%3A6969"],"infoHash":"3f466b14a368c272dd0dd5957b718df8a0a66063","infoHashBuffer":{"type":"Buffer","data":[63,70,107,20,163,104,194,114,221,13,213,149,123,113,141,248,160,166,96,99]},"announce":[],"urlList":[]}}